<?xml version="1.0" encoding="UTF-8" standalone="no"?>
<svg
   xmlns:dc="http://purl.org/dc/elements/1.1/"
   xmlns:cc="http://creativecommons.org/ns#"
   xmlns:rdf="http://www.w3.org/1999/02/22-rdf-syntax-ns#"
   xmlns:svg="http://www.w3.org/2000/svg"
   xmlns="http://www.w3.org/2000/svg"
   xmlns:sodipodi="http://sodipodi.sourceforge.net/DTD/sodipodi-0.dtd"
   xmlns:inkscape="http://www.inkscape.org/namespaces/inkscape"
   version="1.1"
   x="0px"
   y="0px"
   viewBox="0 0 115.1 20"
   id="svg13"
   sodipodi:docname="Pitchfork_logo.svg"
   inkscape:version="1.0.2 (e86c870879, 2021-01-15, custom)">
  <title
     id="title21">Pitchfork logo</title>
  <metadata
     id="metadata19">
    <rdf:RDF>
      <cc:Work
         rdf:about="">
        <dc:format>image/svg+xml</dc:format>
        <dc:type
           rdf:resource="http://purl.org/dc/dcmitype/StillImage" />
        <dc:title>Pitchfork logo</dc:title>
      </cc:Work>
    </rdf:RDF>
  </metadata>
  <defs
     id="defs17" />
  <sodipodi:namedview
     pagecolor="#ffffff"
     bordercolor="#666666"
     borderopacity="1"
     objecttolerance="10"
     gridtolerance="10"
     guidetolerance="10"
     inkscape:pageopacity="0"
     inkscape:pageshadow="2"
     inkscape:window-width="687"
     inkscape:window-height="480"
     id="namedview15"
     showgrid="false"
     inkscape:zoom="9.0529975"
     inkscape:cx="57.549999"
     inkscape:cy="10"
     inkscape:window-x="0"
     inkscape:window-y="0"
     inkscape:window-maximized="0"
     inkscape:current-layer="svg13" />
  <g
     id="g11">
    <path
       id="letter_P"
       d="M0,18.1c1.5,0,2.1-0.7,2.1-2.3V4.2c0-1.6-0.5-2.3-2.1-2.3V0.3h8.6c4.7,0,7.8,2.1,7.8,5.8 c0,3.4-2.8,5.8-7.9,5.8H7.1v3.8c0,1.8,0.9,2.3,3.4,2.3v1.6H0V18.1z M7.1,1.8v8.7h0.8c2.4,0,3.7-1.8,3.7-4.4c0-2.7-1.3-4.3-3.8-4.3 H7.1z" />
    <path
       id="letter_i"
       d="M16.6,18.1c1.4,0,1.9-0.6,1.9-2.1v-5.4c0-0.8-0.6-1.3-1.4-1.2l-0.5,0V7.7l5.3-1.6h1.3v9.8 c0,1.5,0.5,2.1,1.9,2.1v1.6h-8.6V18.1z M20.9,0.5c1.4,0,2.6,1.2,2.6,2.6c0,1.4-1.2,2.6-2.6,2.6c-1.4,0-2.6-1.2-2.6-2.6 C18.3,1.7,19.4,0.5,20.9,0.5" />
    <path
       id="letter_t"
       d="M26.4,8.7h-1.8V7.6c2.1-0.6,4.7-2.3,5.5-4.8h1v4.2h3.3v1.7h-3.3v6.5c0,1.6,0.9,2.1,1.8,2.1 c0.6,0,1.3-0.2,1.7-0.5l0.5,0.9C34.3,19,32.4,20,30.5,20c-2.8,0-4.1-1.7-4.1-4.5V8.7z" />
    <path
       id="letter_c"
       d="M41.9,6.1c1.8,0,3.4,0.5,4.9,1.3L45.1,12H44c-0.3-2.8-1.6-3.9-3-3.9c-1.7,0-2.7,1.5-2.7,3.5 c0,3,2.1,4.5,4.3,4.5c1.7,0,2.6-0.7,3.2-2l1,0.4C46.2,17.6,44.8,20,41,20c-3.5,0-6-2.5-6-6.4C35.1,9,37.8,6.1,41.9,6.1" />
    <path
       id="letter_h"
       d="M46.4,18.1c1.4,0,1.9-0.6,1.9-2.1V4.4c0-0.8-0.6-1.2-1.4-1.2h-0.6V1.4L52,0h1v8.9c0.7-1.9,2.1-2.8,4-2.8 c2.5,0,4.2,1.4,4.2,4.3v5.5c0,1.5,0.5,2.1,1.9,2.1v1.6h-7.9v-1.6c1.2,0,1.2-0.7,1.2-2v-5.5c0-1.2-0.6-1.8-1.7-1.8 c-0.9,0-1.6,0.6-1.8,1.5V16c0,1.3,0.1,2,1.2,2v1.6h-7.9V18.1z" />
    <path
       id="letter_f"
       d="M63.9,18.1c1.4,0,1.9-0.6,1.9-2.1V8.7h-1.9V7.6c1.5,0,2-0.4,2-1.5c0-2.6,2.3-6.1,7-6.1 c1.5,0,3.1,0.5,4.5,1.1l-2,5l-1-0.2c0.1-2.7-0.8-4.4-2.4-4.4c-1.3,0-2,1.1-2,2.5c0,1.2,0.3,2.2,0.5,3h2.8v1.7h-2.7v7.2 c0,1.5,0.5,2.1,1.9,2.1v1.6h-8.6V18.1z" />
    <path
       id="letter_o"
       d="M73.2,13c0-4.5,3.2-7,6.9-7c3.7,0,6.9,2.5,6.9,7c0,4.5-3.2,7-6.9,7C76.4,20,73.2,17.5,73.2,13 M78.5,13 c0,4.4,0.4,5.7,1.6,5.7c1.2,0,1.6-1.3,1.6-5.7c0-4.4-0.4-5.7-1.6-5.7C78.9,7.4,78.5,8.7,78.5,13" />
    <path
       id="letter_r"
       d="M87.3,18.1c1.4,0,1.9-0.6,1.9-2.1v-5.2c0-0.8-0.6-1.3-1.4-1.3h-0.6V7.8l5-1.5h1.4v2.1 c0,1.1-0.1,2.7-0.1,3.3l0.1,0c0.4-4,2.2-5.7,4.3-5.7c0.4,0,0.5,0,0.8,0.1v4.6C97,10.4,94,10.5,94,13.6v2.3c0,1.5,0.5,2.1,1.9,2.1 v1.6h-8.6V18.1z" />
    <path
       id="letter_k"
       d="M98.3,18.1c1.4,0,1.9-0.6,1.9-2.1V4.4c0-0.8-0.6-1.2-1.4-1.2h-0.6V1.4L104,0h1v12.2h0.2l2.3-1.1 c1.1-0.5,1.3-1,1.3-1.7c0-0.9-0.7-1.4-1.8-1.4V6.4h7v1.4c-1.5,1.8-2.9,2.5-4.5,3.3l3.1,4.2c1,1.3,1.6,2.7,2.6,2.7v1.6h-5.9 l-4.1-6.6H105v3.3c0,1.1,0.1,1.6,1.2,1.6v1.6h-7.9V18.1z" />
  </g>
</svg>
