<?xml version="1.0" encoding="UTF-8"?>
<!--Generator: Adobe Illustrator 16.2.1, SVG Export Plug-In . SVG Version: 6.00 Build 0)-->
<!DOCTYPE svg PUBLIC "-//W3C//DTD SVG 1.1//EN" "http://www.w3.org/Graphics/SVG/1.1/DTD/svg11.dtd">
<svg xmlns="http://www.w3.org/2000/svg" width="314" height="80" viewBox="0 0 314 80"><path fill="#212121" d="M157.3 0h24.4l6.3 21.9L195 0h23.4v63.7h-15.8V30.4l-15 40-14.5-40-.1 33.3h-15.7V0zM221.1 0H259v13.6h-21.2v10.8h21.1v13h-21.1v12.7h21v13.6h-37.6V0zM314 80l-16.2-42.8c6.4-4.1 7.3-13 7.3-20.2 0-9.9-4.9-17-17.5-17h-26v63.7h16.6V42.1H282.8l8 21.6L314 80zm-35.8-49.2V12h3.2c5 0 7 2.2 7 7.4 0 4.5-2.2 11.4-6.9 11.4h-3.3z"/><g fill="#212121"><path d="M131.2 0L124 21.9 117.8 0H93.5v52.5L80.7 0H59.8L46.5 54.7V0H29.9v21.9H19.7V9.2a69 69 0 0 0-.4 3.6h-.1V14l-.2.2v1l-.2.2v1l-.2.6v.1c-.3 0-.9.1-1.6 0H17a2 2 0 0 1-1-.2H15l-.3-.1h-.4l-.4-.2-.7.1-1-.3-.2-.2v.1h-.3l-.4-.2v.1H11L11 16l.2.2a66.7 66.7 0 0 1-4-.6H6.1a22 22 0 0 0-.7-.2v-.1l-1.3-.1H3.9l-.5-.2h-.7s0-.2-.2-.2v-.3h.1v-.2h-.1l.2-.1-.1-.1.1-.1v-1.2H3h-.1v-.5l.2-.5h.5l.8.2h1l.7.2h.4v.1h.3l.2.2.1-.1.1.1h.1l.4-.1h.3.3c0 .2.2.2.4.3l.5-.1h.5l.5.3h1.3c.5.2.9.2 1.1.2l.4.3c.3 0 .5-.1.6-.3l.2.3.4-.1.5.1h.2l.5.1h.7l.1-.3a1.7 1.7 0 0 0 0-1l.3-.5v-.1l-.1-.1.1-.2v-.2l.2-1 .4-2.3v-.1-1.2l.1-.3s0-.2.2-.3l.8.3.7-.1h.3c.1 0 .3 0 .5.2h.1V0H0v41.1h.2c.2 0 .6 0 1 .2l.2-.1h.9l-.1.2h.6l.2.2v.5h-.1v.2l-.1.1v1l.1.2v.2l-.2.7-.2.3h.2l-.2.4v1.3l-.2.1v.4h.1l-.2.3h.2l-.1.3.1.3v.2h-.3l.2.1-.1.2v.1l-.1.2v.2h.1l.5.2h1.1l.2.1H4.3l.2.2.3-.2h.1l.8.2.2-.8v-.8l.1-.1.1-.9V46.5l-.1-.2.2-.5H6v-.3h.3l.1-1.2V44v-1l.6-.2h.3l.1.1.8.1H8h.2l.2.1h.3V43h.4l.2.3.5-.3.1.3v1.2l-.3.7.1.2-.1 1.3-.2.2V47.9l-.1.4V49.2h-.1v.4l.1.2H10.2l.6.3.3-.1v-.3h.3v.2h.5c.3 0 .5-.1.6-.5l.2-1-.1-.1v-.5l.1-.2v-.4c0-.8.2-1.5.3-2v-.4l.1-.5V44l.2-.5-.1-.5v-.1l.2-.4a91 91 0 0 1 2.5.3h.3l.2.2c-.2.6-.2 1-.2 1.4l-.1.9h-.3l.2.2-.1.7-.2.8.1.2-.1.3v.7.6l-.4 1.7v.3c0 .1 0 .4-.2.7l.1.2v.5l-.3 1-.3.4-.2-.2-.2.1-.2-.4h-.1v.3h-.1l-.2-.1h-.2a1 1 0 0 0-.6 0l-.3-.1H11.2v-.2h.1l-.1-.2v-.1h.3a2 2 0 0 1-.4-.3l-.3-.3-.1.2v.1l.1.2h-.2.1c0 .3-.1.4-.2.5v.1h-.1a2 2 0 0 1-.7-.2l-.2.1v-.1H8.2v-.1h-.7a1.9 1.9 0 0 0-.9 0l-.2-.1h-.7l-1-.1-.4-.3V52l-.2.3h-.7-.8V52h-1l-.2-.1-.1-.3-.5-.5c-.4-.2-.6-.1-.8-.4H0v2.6h1l.5.3-.1.2v.1l.2-.2v.4h-.2l.2.5h-.3c.4.3.4.2.8.3.2.1.3.3.6.3h.1c.2 0 .2-.2.3-.3l.2-.1v-.2h.1v-.1l-.1-.4-.2.2v.1H3l-.4-.5V53.7l.1.1h.9l.3.1H4l.2.2V54l.2.2V54l.2.2.5-.2.6.3H6l.2.2.2-.1 7.2.5.1.1H14.3l.2.3h.4l.2.2-.3 2.1-.1.2v.1l.1.4c-.2 0-.3.2-.4.3l-1-.1a1 1 0 0 1-.4-.5h.1V58l.2-.4v.1-.2l-.6.4V57.4c-.3.3-.5.4-.7.3h-.5V58.1a2 2 0 0 1-.4 0h-.7v.1H10l-.4-.3-.2.1-.2-.1-1.6-.2v.3h-.1l.3.4.2-.1v.3h.2l.5.5H9v.2l.3.1h.5c0 .2.3.4.6.7h.5c.1 0 .2.2.1.4l.2.7H12.1v.2h.2v.5l-.2.5v.3h.1V63.4l-.2.2c0 .2-.4.4-1 .5v-.1c-.2.1-.5.3-1 .3H10l-.2.1c-.2 0-.5 0-1 .3H8l-.5.3-.3-.2v.2l-.6.1v.2h.2l.3.3.9.2h.4l.3.1H9h-.1.4l.2.2h.4l.7.1-.1.1.1.1.3-.3.8.2V66h.8l.3.2V66h.6l.1.3h.5v1.1h-.1v1.1h-.1v.1l6-5V37.5H30v26.2h32l1.7-11.1h13.2l1.7 11.1h30.7V30.3l14.5 40 15.1-40v33.4h15.7V0h-23.3zM0 51.3v-.2l.1.3H0zm7.2-29.7h.2H7.1zM6 22l-.1.1.1-.1zm-1.4.5v.1-.1zM5 45.8l-.3.1-.2-.3.4-.2.2.2v.2zm11.7-10l-.3 1.9-.3.1-.4-.1v-.1l-.2-.1h.2l-.6-.2-.5-.5a1 1 0 0 0-.6-.1l-.1.1h-.8v-.1h-.1v.1h-.3v-.2l.3-.1c-.3-.2-.4-.4-.8-.4H12a2 2 0 0 1-.3 0v.2h.4v.3h-1v-.1h-.4l-1-.1a10 10 0 0 0-1-.2l-.2.1h-1l-.2-.3-2.8-.3c-.4 0-.6.1-.6.4v.4L4 37v.3l-.2.8-.1 1v.7l-.4.2v-.1h-.3l-1.3-.2h-.3l-.4-.2-.1-.1.1-.3-.2-.1v-.2l.1-.6H1v-.3l.2.1V37.7l-.2.1v-1l.1-.2v-.2l.2-1.8h.1v-.4l.1-.4v-.7-.5h.2V32h.1v-.4-.4l.1-.3-.1-.9.1-.1V29.6l.2-.2h-.1l.1-.2h-.6V29h-.2L1 29V29H1l.2-.2h.4v.2l.1-.2.2.1h.3v-.1l-.1-.2h.1v-.3h.6l.1.1h1c.2 0 .4 0 .7.3l.4 1h-.1v.2l.1.1-.3 2-.2.2v.4h.2c.6 0 1.2.2 1.7.4l.2-.2 1 .1.4.3v-.2l.1.1h.5v.2h.2v-.1l1 .2.3-.2h.6l.3.3.2-.1h1l.2.2.3.1h.8l.4.3.2-.1 1.1.1.1.1h1l.5.1c.2.1.2.3.1.5v1.1zm1.4-16.4v.5H17.9l-.1.1.3.3V20.6c0 .3 0 .4-.2.4l.2.3v.1l-.1.2-.1-.1-.6.2c-.1.2-.4.3-.7.4l-.2-.1v-.2l-.5.5-1.2.2-.2.5v.1l-.1.2.1.4-.1.1v.2l-.2.4v.3l.2.1-.1.1v.4l-.1.4V26L14 26l-.3.8.2-.1.1.4h-.3l.1.3H14.1v.2h-.2c.1.2.4.5.8.7h.3V28l.1-.1.2-.2.3.7.7.4.1-.1h.1l.2.3h.3l-.2.2H17.1l.3 1 .1.3-.2 1.1h-.1v.5H17l-.4-.2-.3.1.3.3-.3.1-.3-.2h.1l-.5-.4h.1l-.5-.4H15s-.2 0-.3.2h-.1l.6.4h.2-.1l1.2.6H16l-.1-.2a4 4 0 0 0-.8 0v-.3h-.3l-.4-.2V32h.2l-.1-.2h.3-.2v-.1l-.3-.2h.1v-.2L14 31l.1.1v.2l.2.5v.2H14v-.5.1h-.2l-.2-.1-1.2-.7-.3.1H12V30.6l-.2.1h-.2l-.2-.3h-.1v.2l-.1-.4h-.4a.6.6 0 0 0-.4-.3v-.2h-.6l-.2-.2-.2-.2-2-.8v-.2l-.2.2-.5-.4h-.3v-.2h.2c-.3 0-.7-.2-1.3-.5l-.1-.2-1-.3-.3-.4-.1.1-.4-.1H3l.2-.1-.9-.5.1-.1h-.2l-.6-.2.2-.4-.2-.2h-.2v-.2h.1l.1-.2-.1-.3v-.2l.1-.2v-.2-.5-.3h.1l.2-.2h.1l.4-.1H3l.3-.2h.2l.3-.1v.2c0 .1 0 .2.2.2H4v-.1H4.4v.2h.8c.4.1 1 .3 1.1-.2H7c.2-.2.6-1.2.8-.8l-.1-.2h.1l-.2-.2v-.2c.3 0 .5 0 .6-.2l.2.1v.3c.2 0 .4 0 .6-.4l.2.2.1-.2v-.1h.5v-.4h.7l.7-.2c.3 0 .5-.2.6-.3h.3v-.2c.5 0 1-.2 1.6-.5h.2v-.1l.3.1.2-.1h.2l.4-.2.2-.2H16.1l.2-.2h.2l.4-.2.5-.1h.7l.1.2V19.4zM1.5 24.7h.1zm64.1 15.4l4.6-22.3L75 40.1h-9.3z"/><path d="M11.3 35.3l.1-.1-.1-.2zM11 35.8v0zM11.8 35v.1l.3.1V35h-.3zM11.1 36.4V36v.4z"/><path d="M12.3 34.2l-.4.1v.2h.4l-.3.3v.2h.5v.1c.2 0 .2-.1.3-.3l-.2.2-.1-.2.2-.3v-.2l.3-.2-.2-.1-.5.2zM16.2 37.6h.2v.1h-.2zM14.2 30.4l-.1.1h.2-.1zM16.2 37.2zM15.4 32.1zM2.6 31.6h.1v.1h-.1zM2.3 36.8h.1zM2.5 34.7zM7.3 33.2l.1-.2h-.2zM9.8 36.2h.1v.1h-.1zM9 36.2h-.2zM8.3 36.1h.1zM2.3 31l.1.2h.4l-.3-.2zM14 30.6h-.1v-.1zM8.6 21.5h-.2.2zM11.5 23.5zM11.7 24.2V24zM11.6 23.5h-.1.1zM1.8 24l.1.1V24zM2.3 25.6zM2 24.7V24.6v.1zM9.4 21.3h-.2.2zM12.5 22.3v.1zM13.6 24.4h.2v-.3l-.2.3zM12.7 27zM14.1 30.7h.2l-.2-.2-.2.3.4.1-.2-.2zM12.7 24.2l.2.2h.2l-.3-.2zM12.5 21.9h-.1.2zM13.3 24.6v.1h.2-.1zM11.7 23.7v-.1zM0 46zM4.7 66l-.1-.2-.1.3zM5.3 68.3h.2v.1h-.2zM4.5 65.7l.1.1h.1zM6.1 68.5h.1v-.1zM4.6 65.2V65zM4.6 65.3v.3l.1-.2zM5 63.7h-.2v.5h-.1v.7c0-.3 0-.5.2-.7v-.5zM4.9 63.2v.4zM5 62.7v.3zM2.4 33.4h-.1zM2.5 50.1v.1h.1zM2.2 52h.2l-.1-.1zM1.5 46.5v.3V46.5zM1.3 54.3c-.4-.2-.5-.4-.5-.6H.4l-.2.4H.5c.3 0 .5.2.7.4v-.2zM4.4 54.8h-.2.3-.1zM1 57l.1.2h.1V57zM3.8 54.8H4v-.2l.2-.2-.2.2h-.2v.2zM3.6 54.4h.2v.1h-.2zM.4 63.3l1.5-.4.1.2.2-.3.8-.3.5-.1h.1c.3-.1.5-.2.7-.1l.2-.1c.2 0 .4 0 .5-.3v.7h.2V62h.1l.1.2.3-.2.5-.2h.1l.2-.2a6 6 0 0 0-2.1-1.7l-2.5-1.5v-.2l-.2.1h-.1l-1.1-.8L0 57H0v6.2h.4zM8.7 64.4v.2-.1zM12.8 69h.1l.1-.1-.2-.2zM2.8 28.4zM12.7 69.4h.2l-.2-.1zM2.1 35.5zM1.3 39.5h.2v.1h-.2zM12.3 66.5v.1h-.1zM1.8 35.7H2l.2.1-.1-.1zM2 51.8a1 1 0 0 1-.4 0l.2.2.2-.2zM4.4 66.5v.1zM0 63.3v.1zM1.2 67.7v-.1h.5v.1zM4.4 67.3v-.1l-.1.1zM5.3 26.3l.2-.2-.2-.1z"/><path d="M11.4 69.2h-.7l-.4-.2v.2a3 3 0 0 1-.4 0h-.5l-.2-.2H9l-.6-.1h-.6l-.2-.1-.2-.1H7l-2.6-.4-.2-.1v-.8l-.2.8h-.8V68H3l-2-.4H0V80l12.8-10.5h-.1l-1.3-.3z"/><path d="M9.3 69l-.2-.1.3.1zM.1 43.7zM12.5 24.3h-.1zM14.5 52.4v-.2.2zM14 52.6h.1v-.2H14zM15 50l-.2-.3-.1.1.2.2zM14.1 49.4l-.1.1v.1h.2zM14.8 44.3v.2-.1zM2.2 43.4l.2-.4h-.2zM2.4 42.3V42l-.2.7.2-.3zM15.8 43.7v-.2h-.2c0 .1 0 .2.2.2zM15.7 43.2l-.2.1.4.1zM12 51h-.1v.1h.1zM11.7 50.3l.1.1zM9.3 46.6h-.1zM11.6 52.8zM9.2 51.5v-.1h.2v.1zM2.4 47.9h-.1zM12.5 52.7l-.2.2h.3zM13.6 52.5v-.3l-.2.2zM12.3 51.1zM18.5 8.6l-.2-.2h-.2l.3.2zM9.6 16v-.1zM7.2 15v-.2h.1v.3zM8.5 13.7v.1zM12.4 14.4h.2-.2zM10.7 15.8h.1l-.1-.2v.1zM5.4 12.9l.1-.2h-.1zM3.1 14.2v.3l.2.2h.2c0-.2-.2-.4-.4-.5zM6 14.5l.1-.1zM7 12.8v.3h-.1zM19.3 9.2V9v.2zM17.9 6.5l.1.3.1-.2H18zM19.5 6.7l-.1.1V7zM12.2 14.5h.2l-.2-.2zM19.3 8.6v.1zM18 8.6h.3v.1h-.4zM13.3 14.5l-.3-.2v.2h.3zM18.3 7.7v-.2zM9 47.5v-.1zM5.5 26.5h.1v0zM7.4 63.1v.1zM7.2 64zM14 57.7v-.1zM8 57l-.1.1.5-.1H8zM13.6 57.6zM10.7 60.9v-.1h.1v.1zM13.7 57h-.2l.2.1zM13.5 27.7v-.1.1zM10.7 60.4v-.2zM7.7 28.4zM9.3 26.3h-.1zM6 25.3l.2-.1H6zM5.7 26.3V26v.2zM12.8 26h.1v-.2h-.1l-.2-.2h.2l-.4-.5-.2-.2-.1-.2.3-.3h-.1.1l-.2-.3H12l-.1.2-.4-.3.1-.2-.7-.6c-.3 0-.6 0-.6.3h-.5v.2h-.5s-.1.1 0 .2h-.7v.3H8.3c-.3.3-.5.5-.8.6H7v.1h-.2-.1-.2V25.2h.6c0 .2.2.3.5.3h.1V25h.2l.2.2c.4 0 .7.2.9.5h.4l.5.1.1.2h.2c.4.4.8.5 1.1.6l.3-.3v-.5h.4l-.1.2h-.2v.3h.2v.2l.3-.3.1.6h.3v-.1l-.2-.2.3.1v.2l.1-.3.2-.4-.2-.2zm-5.6-1h.2-.2zm4.7 1l-.1-.1v-.1h.2v.1zM8.7 47.1V47zM13 30v-.1H13zM9.5 26.5v-.1zM12.3 27.6h.1v-.1h-.1zM12.1 27.6h.2zM4.7 50.4h-.1zM3.4 50.8h.2-.3.1zM5.5 50.5l-.1.1h.2zM6.5 52.5zM14 58.1l.1-.1v-.1H14zM8.4 47.2zM3.7 50.3H4h-.3zM13.9 58.4zM3.6 50.2h.1v.1h-.1zM2.9 50.4v.4H3v-.4z"/></g></svg>