<svg id="svg" version="1.1" width="400" height="79.65738758029978" viewBox="0 0 400 79.65738758029978" xmlns="http://www.w3.org/2000/svg" xmlns:xlink="http://www.w3.org/1999/xlink" ><g id="svgg"><path id="path0" d="M222.167 39.583 L 222.167 78.667 234.167 78.667 L 246.167 78.667 246.167 65.156 C 246.167 56.161,246.224 51.537,246.339 51.322 C 246.555 50.920,253.645 50.814,253.958 51.208 C 254.120 51.414,254.614 52.293,255.665 54.250 C 255.961 54.800,256.447 55.700,256.746 56.250 C 257.046 56.800,257.600 57.830,257.978 58.539 C 258.356 59.249,259.254 60.899,259.973 62.206 C 260.692 63.514,261.620 65.221,262.035 66.000 C 262.449 66.779,263.051 67.904,263.373 68.500 C 263.694 69.096,264.179 69.996,264.450 70.500 C 264.721 71.004,265.583 72.579,266.365 74.000 C 267.147 75.421,268.030 77.052,268.327 77.625 L 268.867 78.667 282.183 78.667 L 295.499 78.667 294.111 76.375 C 293.347 75.115,292.059 72.958,291.248 71.583 C 290.437 70.208,288.579 67.096,287.117 64.668 C 285.656 62.239,284.394 60.102,284.311 59.918 C 284.229 59.734,284.015 59.358,283.835 59.083 C 283.655 58.808,283.375 58.341,283.212 58.045 C 283.050 57.749,282.043 56.061,280.974 54.295 C 276.320 46.599,276.545 47.183,278.000 46.584 C 278.412 46.414,279.087 46.135,279.500 45.965 C 290.164 41.565,294.997 30.367,291.643 17.833 C 290.289 12.777,287.621 8.508,284.083 5.736 C 283.625 5.377,283.212 5.042,283.167 4.992 C 282.742 4.526,279.496 2.938,277.907 2.418 C 272.663 0.702,269.241 0.517,242.542 0.508 L 222.167 0.500 222.167 39.583 M1.167 0.843 C 1.167 1.048,3.219 9.521,3.566 10.750 C 3.696 11.208,3.851 11.883,3.911 12.250 C 3.971 12.617,4.091 13.142,4.178 13.417 C 4.264 13.692,4.639 15.192,5.012 16.750 C 5.798 20.042,9.269 34.140,9.505 35.000 C 9.593 35.321,9.896 36.558,10.177 37.750 C 10.458 38.942,11.020 41.277,11.427 42.939 C 11.834 44.601,12.167 46.083,12.167 46.233 C 12.167 46.382,12.239 46.635,12.327 46.794 C 12.415 46.953,12.557 47.421,12.642 47.833 C 12.818 48.679,14.574 55.769,14.830 56.667 C 14.922 56.987,15.298 58.525,15.667 60.083 C 16.035 61.642,16.410 63.179,16.498 63.500 C 16.587 63.821,16.850 64.908,17.081 65.917 C 17.313 66.925,17.576 68.012,17.666 68.333 C 17.756 68.654,18.368 71.110,19.027 73.792 L 20.224 78.667 33.154 78.667 L 46.083 78.666 47.234 73.958 C 47.867 71.369,48.494 68.837,48.628 68.333 C 48.761 67.829,48.970 66.967,49.091 66.417 C 49.212 65.867,49.422 64.967,49.557 64.417 C 50.119 62.125,50.531 60.371,50.673 59.667 C 50.756 59.254,50.900 58.654,50.993 58.333 C 51.085 58.012,51.464 56.475,51.834 54.917 C 52.204 53.358,52.761 51.033,53.073 49.750 C 53.691 47.205,54.250 44.750,54.419 43.833 C 54.479 43.512,54.595 43.025,54.677 42.750 C 54.933 41.895,55.665 38.001,56.088 35.250 C 56.461 32.829,56.997 28.894,57.099 27.833 C 57.351 25.224,57.784 25.414,58.238 28.333 C 58.663 31.068,58.824 32.044,59.077 33.417 C 59.212 34.150,59.480 35.650,59.673 36.750 C 59.866 37.850,60.097 39.012,60.187 39.333 C 60.276 39.654,60.414 40.292,60.494 40.750 C 60.668 41.758,61.422 45.204,62.060 47.917 C 62.540 49.956,64.676 58.606,64.859 59.250 C 64.962 59.617,65.146 60.367,65.267 60.917 C 65.650 62.667,65.954 63.939,66.129 64.519 C 66.223 64.830,66.466 65.833,66.670 66.750 C 66.873 67.667,67.101 68.567,67.177 68.750 C 67.252 68.933,67.424 69.608,67.560 70.250 C 67.831 71.532,67.988 72.178,68.959 76.000 L 69.615 78.583 82.516 78.625 L 95.417 78.667 95.721 77.375 C 96.137 75.609,98.121 67.554,98.318 66.833 C 98.406 66.512,98.637 65.575,98.833 64.750 C 99.028 63.925,99.293 62.837,99.420 62.333 C 99.548 61.829,99.839 60.629,100.066 59.667 C 100.294 58.704,100.642 57.279,100.839 56.500 C 101.037 55.721,101.263 54.783,101.342 54.417 C 101.520 53.587,103.921 43.886,104.230 42.750 C 104.596 41.401,105.091 39.360,105.585 37.167 C 105.719 36.571,105.985 35.483,106.176 34.750 C 106.366 34.017,106.626 32.967,106.752 32.417 C 106.877 31.867,107.139 30.779,107.334 30.000 C 107.528 29.221,107.794 28.133,107.925 27.583 C 108.056 27.033,108.618 24.783,109.173 22.583 C 110.242 18.347,110.480 17.384,110.985 15.250 C 111.158 14.517,111.422 13.429,111.571 12.833 C 111.861 11.673,112.151 10.450,112.577 8.583 C 112.724 7.942,112.917 7.192,113.005 6.917 C 113.157 6.447,114.500 0.894,114.500 0.737 C 114.500 0.697,109.273 0.684,102.883 0.707 L 91.267 0.750 91.062 1.750 C 90.950 2.300,90.743 3.275,90.602 3.917 C 90.461 4.558,90.190 5.796,89.999 6.667 C 89.808 7.537,89.548 8.737,89.422 9.333 C 88.755 12.488,86.297 23.544,86.087 24.333 C 85.844 25.246,85.656 26.102,85.245 28.167 C 85.126 28.762,84.869 29.962,84.675 30.833 C 84.480 31.704,83.989 34.067,83.584 36.083 C 83.179 38.100,82.769 40.087,82.673 40.500 C 82.374 41.786,81.221 48.947,80.833 51.917 C 80.416 55.119,80.406 55.167,80.175 55.167 C 79.966 55.167,79.874 54.780,79.678 53.083 C 79.074 47.844,78.152 42.559,77.004 37.750 C 76.916 37.383,76.696 36.446,76.513 35.667 C 75.615 31.824,74.819 28.533,74.681 28.083 C 74.597 27.808,74.478 27.321,74.417 27.000 C 74.356 26.679,74.237 26.192,74.152 25.917 C 73.977 25.346,69.771 8.323,68.902 4.667 C 68.586 3.337,68.254 2.020,68.164 1.738 C 68.074 1.457,68.000 1.100,68.000 0.947 C 68.000 0.688,67.238 0.667,57.786 0.667 L 47.572 0.667 47.387 1.542 C 47.286 2.023,47.075 2.942,46.918 3.583 C 46.761 4.225,46.535 5.200,46.415 5.750 C 46.125 7.079,45.682 8.971,44.833 12.500 C 44.448 14.104,43.983 16.054,43.800 16.833 C 43.618 17.612,43.361 18.700,43.230 19.250 C 43.098 19.800,42.846 20.887,42.670 21.667 C 42.368 22.999,42.094 24.182,41.589 26.333 C 41.307 27.532,40.701 30.155,40.414 31.417 C 40.289 31.967,39.917 33.579,39.588 35.000 C 37.946 42.081,37.062 46.670,36.250 52.333 C 35.895 54.805,35.808 55.167,35.565 55.167 C 35.294 55.167,35.250 54.962,34.997 52.500 C 34.566 48.309,34.048 44.986,33.127 40.500 C 32.853 39.171,32.532 37.596,32.412 37.000 C 32.293 36.404,32.037 35.204,31.844 34.333 C 31.651 33.462,31.375 32.188,31.230 31.500 C 31.085 30.813,30.865 29.800,30.741 29.250 C 30.617 28.700,30.367 27.575,30.185 26.750 C 30.003 25.925,29.742 24.762,29.606 24.167 C 29.470 23.571,28.985 21.396,28.528 19.333 C 28.072 17.271,27.611 15.208,27.505 14.750 C 27.399 14.292,27.209 13.429,27.083 12.833 C 26.957 12.237,26.740 11.225,26.600 10.583 C 26.044 8.038,25.687 6.374,25.506 5.500 C 25.402 4.996,25.210 4.133,25.079 3.583 C 24.948 3.033,24.759 2.152,24.659 1.625 L 24.476 0.667 12.822 0.667 C 4.757 0.667,1.167 0.721,1.167 0.843 M150.000 39.667 L 150.000 78.667 162.000 78.667 L 174.000 78.667 174.000 39.667 L 174.000 0.667 162.000 0.667 L 150.000 0.667 150.000 39.667 M335.083 39.667 L 335.083 78.667 367.083 78.667 L 399.083 78.667 399.042 70.792 C 399.019 66.460,399.000 62.748,399.000 62.542 L 399.000 62.168 379.125 62.126 L 359.250 62.083 359.207 54.125 L 359.163 46.167 376.332 46.167 L 393.500 46.167 393.500 37.917 L 393.500 29.667 376.542 29.664 C 367.215 29.663,359.489 29.601,359.373 29.528 C 359.208 29.424,359.172 28.086,359.206 23.406 L 359.250 17.417 377.542 17.374 L 395.833 17.332 395.833 8.999 L 395.833 0.667 365.458 0.667 L 335.083 0.667 335.083 39.667 M260.137 16.672 C 265.448 17.217,268.364 20.065,268.748 25.083 C 269.157 30.429,266.564 33.957,261.453 35.012 C 260.092 35.293,259.146 35.329,253.144 35.331 L 246.372 35.333 246.272 34.958 C 246.065 34.187,246.155 16.912,246.367 16.700 C 246.623 16.443,257.692 16.421,260.137 16.672 " stroke="none" fill="#243334" fill-rule="evenodd"></path><path id="path1" d="M0.778 0.278 C 0.567 0.488,0.670 1.094,1.482 4.417 C 1.931 6.250,2.393 8.162,2.509 8.667 C 2.626 9.171,2.752 9.492,2.789 9.380 C 2.827 9.269,2.706 8.556,2.520 7.797 C 1.228 2.517,0.833 0.854,0.833 0.689 C 0.833 0.550,3.979 0.500,12.727 0.500 L 24.621 0.500 24.833 1.500 C 24.950 2.050,25.110 2.500,25.189 2.500 C 25.534 2.500,25.060 0.544,24.663 0.332 C 24.316 0.146,0.962 0.093,0.778 0.278 M47.219 0.375 C 47.057 0.592,46.656 2.216,45.769 6.250 C 45.628 6.892,45.254 8.504,44.939 9.833 C 44.360 12.272,44.025 14.160,44.319 13.333 C 44.400 13.104,44.592 12.354,44.745 11.667 C 45.226 9.503,45.829 6.952,46.086 5.989 C 46.222 5.479,46.333 4.897,46.333 4.695 C 46.333 4.494,46.406 4.199,46.494 4.039 C 46.627 3.801,47.013 2.216,47.093 1.583 C 47.104 1.492,47.171 1.210,47.242 0.958 L 47.369 0.500 57.747 0.500 L 68.124 0.500 68.651 2.708 C 69.170 4.883,69.495 5.799,69.494 5.083 C 69.494 4.594,68.583 0.967,68.353 0.536 L 68.155 0.167 57.765 0.167 C 49.646 0.167,47.340 0.212,47.219 0.375 M90.841 0.542 C 90.758 0.748,90.568 1.479,90.419 2.167 C 90.270 2.854,90.047 3.867,89.923 4.417 C 89.571 5.977,89.446 6.938,89.620 6.750 C 89.763 6.595,90.693 2.655,90.760 1.917 C 90.777 1.733,90.838 1.452,90.895 1.292 C 90.953 1.131,91.035 0.887,91.078 0.750 C 91.158 0.496,114.833 0.345,114.833 0.599 C 114.833 0.653,114.617 1.572,114.353 2.640 C 113.790 4.918,113.571 6.158,113.847 5.500 C 114.012 5.106,114.172 4.463,114.773 1.781 C 114.913 1.157,114.986 0.538,114.936 0.406 C 114.857 0.201,113.138 0.167,102.918 0.167 L 90.993 0.167 90.841 0.542 M149.583 0.542 C 149.533 0.748,149.513 18.504,149.538 40.000 L 149.583 79.083 162.000 79.083 L 174.417 79.083 174.459 39.760 C 174.492 8.411,174.458 0.410,174.292 0.304 C 174.177 0.231,168.591 0.171,161.878 0.169 L 149.673 0.167 149.583 0.542 M221.875 39.625 L 221.917 79.083 234.239 79.126 C 243.987 79.160,246.590 79.125,246.695 78.959 C 246.768 78.844,246.829 72.619,246.831 65.125 L 246.833 51.500 250.229 51.500 L 253.625 51.500 254.417 53.042 C 255.257 54.675,257.174 58.223,257.678 59.075 C 257.937 59.513,260.190 63.713,262.377 67.833 C 263.291 69.556,263.853 70.538,264.093 70.833 C 264.204 70.971,264.839 72.133,265.502 73.417 C 267.113 76.531,267.744 77.698,268.249 78.498 L 268.671 79.167 282.072 79.167 C 289.442 79.167,295.591 79.121,295.736 79.066 C 296.034 78.951,296.092 78.410,295.823 78.244 C 295.726 78.183,295.576 77.973,295.490 77.775 C 295.404 77.578,295.025 76.929,294.646 76.333 C 294.268 75.737,293.807 74.987,293.622 74.667 C 293.437 74.346,293.148 73.858,292.979 73.583 C 292.811 73.308,292.499 72.746,292.286 72.333 C 291.629 71.059,289.472 67.435,289.161 67.083 C 288.882 66.768,288.434 66.002,287.408 64.083 C 287.163 63.625,286.868 63.137,286.753 63.000 C 286.638 62.862,286.356 62.413,286.127 62.000 C 285.897 61.587,285.363 60.667,284.938 59.954 C 284.514 59.240,284.167 58.610,284.167 58.551 C 284.167 58.420,283.136 56.781,282.982 56.667 C 282.871 56.584,281.207 53.775,280.217 52.000 C 279.937 51.496,279.241 50.311,278.672 49.368 C 277.468 47.371,277.467 47.377,278.856 46.840 C 279.439 46.614,279.954 46.382,280.000 46.325 C 280.046 46.268,280.833 45.855,281.750 45.409 C 284.482 44.078,287.269 41.817,288.413 40.006 C 288.639 39.648,288.962 39.219,289.132 39.053 C 289.707 38.489,290.590 36.976,291.401 35.167 C 291.779 34.322,292.502 31.834,292.487 31.429 C 292.477 31.170,292.433 31.209,292.311 31.583 C 292.221 31.858,291.954 32.683,291.717 33.417 C 289.737 39.547,285.483 43.815,278.583 46.591 C 276.996 47.229,277.022 47.145,277.936 48.671 C 278.384 49.418,278.890 50.267,279.061 50.557 C 279.232 50.846,279.950 52.058,280.658 53.250 C 281.365 54.442,283.256 57.629,284.859 60.333 C 286.463 63.038,289.090 67.462,290.699 70.167 C 295.300 77.903,295.729 78.671,295.556 78.844 C 295.458 78.942,290.317 78.986,282.083 78.959 L 268.768 78.917 267.873 77.333 C 267.380 76.462,266.444 74.737,265.792 73.500 C 265.141 72.262,263.784 69.750,262.776 67.917 C 261.769 66.083,260.647 64.021,260.282 63.333 C 259.534 61.922,255.724 54.906,255.200 53.975 C 255.012 53.641,254.623 52.916,254.336 52.365 C 254.049 51.813,253.700 51.318,253.560 51.264 C 253.223 51.135,247.102 51.138,246.764 51.268 C 246.526 51.359,246.500 52.731,246.500 65.083 C 246.500 77.244,246.471 78.809,246.245 78.896 C 246.104 78.949,240.611 78.976,234.036 78.955 L 222.083 78.917 222.041 39.616 L 221.999 0.315 245.125 0.386 C 268.468 0.457,269.626 0.486,273.333 1.095 C 278.958 2.019,282.574 3.748,286.021 7.160 C 288.727 9.838,291.504 14.986,292.095 18.417 C 292.273 19.453,292.537 19.731,292.411 18.750 C 291.849 14.352,286.774 6.181,283.750 4.803 C 283.521 4.699,283.333 4.550,283.333 4.473 C 283.333 4.396,283.262 4.333,283.175 4.333 C 283.088 4.333,282.694 4.119,282.300 3.858 C 277.240 0.501,273.802 0.171,243.875 0.168 L 221.833 0.167 221.875 39.625 M334.672 0.490 C 334.399 1.000,334.437 78.517,334.710 78.888 C 334.903 79.150,337.079 79.166,367.167 79.126 L 399.417 79.083 399.417 70.417 L 399.417 61.750 379.542 61.708 L 359.667 61.665 359.667 54.166 L 359.667 46.667 376.633 46.667 C 389.607 46.667,393.647 46.620,393.800 46.467 C 394.069 46.198,394.091 29.409,393.822 29.243 C 393.724 29.183,386.501 29.144,377.770 29.158 C 369.039 29.171,361.394 29.131,360.781 29.068 L 359.667 28.954 359.667 23.394 L 359.667 17.835 377.958 17.792 L 396.250 17.750 396.293 9.094 C 396.327 2.280,396.292 0.410,396.127 0.305 C 395.590 -0.036,334.855 0.148,334.672 0.490 M174.194 0.667 C 174.225 0.758,174.213 18.402,174.167 39.875 L 174.083 78.917 162.250 78.963 C 155.742 78.988,150.248 78.968,150.042 78.918 L 149.667 78.827 149.667 39.663 L 149.667 0.500 161.903 0.500 C 169.910 0.500,174.158 0.558,174.194 0.667 M395.960 9.042 L 395.917 17.583 377.667 17.667 L 359.417 17.750 359.417 23.500 L 359.417 29.250 376.500 29.333 L 393.583 29.417 393.583 37.833 L 393.583 46.250 376.500 46.333 L 359.417 46.417 359.373 54.125 L 359.330 61.833 379.332 61.833 L 399.333 61.833 399.333 70.316 C 399.333 77.896,399.305 78.808,399.070 78.899 C 398.725 79.031,335.442 79.031,335.097 78.899 C 334.858 78.807,334.833 75.194,334.833 39.649 L 334.833 0.500 365.418 0.500 L 396.003 0.500 395.960 9.042 M25.173 2.917 C 25.169 3.239,25.417 4.320,25.614 4.833 C 25.666 4.971,25.725 5.233,25.744 5.417 C 25.831 6.262,26.228 7.851,26.374 7.942 C 26.557 8.055,26.436 7.118,26.081 5.667 C 25.957 5.162,25.806 4.397,25.744 3.966 C 25.619 3.100,25.181 2.294,25.173 2.917 M69.424 5.855 C 69.588 6.372,70.298 9.146,70.655 10.667 C 70.752 11.079,70.906 11.679,70.998 12.000 C 71.090 12.321,71.495 13.971,71.899 15.667 C 72.303 17.362,72.800 19.447,73.005 20.298 C 73.209 21.150,73.414 21.808,73.461 21.761 C 73.551 21.671,73.449 21.211,72.222 16.167 C 71.810 14.471,71.324 12.446,71.142 11.667 C 70.960 10.887,70.702 9.800,70.568 9.250 C 70.435 8.700,70.191 7.655,70.028 6.927 C 69.864 6.200,69.633 5.572,69.514 5.533 C 69.356 5.480,69.332 5.567,69.424 5.855 M113.458 6.250 C 113.399 6.433,113.304 6.883,113.247 7.250 C 113.190 7.617,113.078 8.067,112.999 8.250 C 112.858 8.576,111.833 12.509,111.833 12.724 C 111.833 13.008,112.170 12.789,112.243 12.458 C 112.288 12.252,112.631 10.820,113.005 9.276 C 113.379 7.732,113.658 6.345,113.625 6.193 C 113.574 5.963,113.546 5.973,113.458 6.250 M89.195 7.917 C 89.082 8.467,88.884 9.329,88.755 9.833 C 88.466 10.959,88.264 12.333,88.386 12.333 C 88.436 12.333,88.563 11.902,88.668 11.375 C 88.773 10.848,89.008 9.789,89.189 9.023 C 89.370 8.256,89.492 7.469,89.459 7.273 C 89.425 7.070,89.312 7.346,89.195 7.917 M26.397 8.542 C 26.454 8.748,26.547 9.200,26.605 9.545 C 26.710 10.172,27.000 10.580,27.000 10.101 C 27.000 9.524,26.626 8.167,26.467 8.167 C 26.369 8.167,26.339 8.328,26.397 8.542 M2.928 10.333 C 2.988 10.746,3.109 11.196,3.196 11.333 C 3.303 11.502,3.322 11.344,3.254 10.849 C 3.200 10.446,3.079 9.996,2.987 9.849 C 2.868 9.661,2.851 9.801,2.928 10.333 M27.072 11.250 C 27.135 11.708,27.292 12.496,27.421 13.000 C 27.550 13.504,27.744 14.367,27.852 14.917 C 27.960 15.467,28.080 15.827,28.118 15.717 C 28.200 15.485,27.223 10.664,27.064 10.516 C 27.005 10.461,27.009 10.792,27.072 11.250 M3.338 11.843 C 3.336 11.986,3.487 12.736,3.674 13.510 C 3.861 14.284,4.165 15.554,4.350 16.333 C 5.258 20.166,5.707 21.940,5.828 22.176 C 5.902 22.318,6.091 22.993,6.248 23.676 C 6.405 24.358,6.636 25.217,6.761 25.583 L 6.989 26.250 6.886 25.583 C 6.829 25.217,6.153 22.404,5.383 19.333 C 4.614 16.262,3.906 13.375,3.810 12.917 C 3.619 11.997,3.347 11.381,3.338 11.843 M88.011 13.379 C 87.900 13.908,87.840 14.433,87.880 14.545 C 87.920 14.658,88.043 14.317,88.155 13.788 C 88.267 13.259,88.326 12.734,88.287 12.621 C 88.247 12.509,88.123 12.850,88.011 13.379 M111.787 13.114 C 111.744 13.189,111.476 14.188,111.193 15.333 C 110.732 17.199,110.319 18.910,108.900 24.833 C 108.669 25.796,108.071 28.237,107.571 30.258 C 107.070 32.279,106.627 34.079,106.585 34.258 C 106.544 34.437,106.247 35.596,105.926 36.833 C 105.275 39.339,105.276 39.333,105.478 39.333 C 105.627 39.333,105.731 38.979,106.313 36.500 C 106.496 35.721,106.918 33.958,107.251 32.583 C 107.957 29.664,108.301 28.217,108.991 25.250 C 109.269 24.058,109.565 22.858,109.649 22.583 C 109.733 22.308,110.002 21.183,110.247 20.083 C 110.491 18.983,110.795 17.855,110.921 17.575 C 111.251 16.846,112.078 13.189,111.944 13.055 C 111.901 13.013,111.831 13.039,111.787 13.114 M43.835 14.750 C 43.718 15.300,43.482 16.308,43.311 16.990 C 43.140 17.672,43.000 18.335,43.000 18.465 C 43.000 18.594,42.896 18.936,42.768 19.225 C 42.641 19.514,42.331 20.650,42.080 21.750 C 41.829 22.850,41.521 24.160,41.395 24.660 C 41.133 25.703,41.097 26.310,41.311 26.075 C 41.502 25.864,41.873 24.317,41.759 24.203 C 41.710 24.154,41.740 24.029,41.827 23.925 C 41.913 23.821,42.128 23.101,42.305 22.326 C 42.482 21.551,42.975 19.386,43.402 17.515 C 43.828 15.644,44.148 14.032,44.113 13.932 C 44.078 13.832,43.953 14.200,43.835 14.750 M87.526 15.616 C 87.428 16.056,87.188 17.139,86.992 18.022 C 86.795 18.905,86.662 19.767,86.696 19.939 C 86.729 20.110,87.006 19.063,87.310 17.612 C 87.614 16.161,87.828 14.939,87.784 14.895 C 87.740 14.851,87.624 15.176,87.526 15.616 M28.174 16.181 C 28.182 16.441,28.204 16.548,29.060 20.500 C 29.388 22.012,29.816 24.000,30.011 24.917 C 30.207 25.833,30.397 26.615,30.434 26.653 C 30.544 26.768,30.495 26.126,30.339 25.417 C 30.259 25.050,30.045 24.075,29.864 23.250 C 29.683 22.425,29.267 20.484,28.939 18.936 C 28.404 16.407,28.153 15.503,28.174 16.181 M246.540 25.958 L 246.583 35.083 251.000 35.113 C 253.429 35.130,256.467 35.085,257.750 35.014 C 259.604 34.911,258.721 34.879,253.458 34.859 L 246.833 34.833 246.833 25.917 L 246.833 17.000 252.792 17.001 C 259.586 17.003,260.895 17.111,263.037 17.846 C 266.001 18.864,267.674 20.961,268.103 24.197 C 268.178 24.764,268.266 24.967,268.385 24.849 C 268.503 24.730,268.499 24.480,268.370 24.047 C 268.268 23.700,268.143 23.163,268.092 22.854 C 267.791 21.017,266.086 18.956,264.073 17.995 C 261.973 16.993,260.463 16.833,253.076 16.833 L 246.497 16.833 246.540 25.958 M292.525 20.083 C 292.527 20.267,292.632 21.092,292.757 21.917 L 292.986 23.417 292.920 22.000 C 292.863 20.766,292.513 19.071,292.525 20.083 M86.368 21.083 C 86.266 21.542,86.133 22.179,86.072 22.500 C 86.011 22.821,85.903 23.158,85.832 23.250 C 85.761 23.342,85.618 23.867,85.514 24.417 C 85.410 24.967,85.254 25.679,85.168 26.000 C 84.737 27.601,83.644 33.013,83.714 33.201 C 83.821 33.488,83.867 33.339,84.398 31.000 C 85.590 25.751,86.671 20.598,86.616 20.434 C 86.582 20.333,86.471 20.625,86.368 21.083 M73.506 22.129 C 73.495 22.536,74.547 26.584,74.707 26.750 C 74.914 26.965,74.721 25.673,74.402 24.703 C 74.272 24.310,74.164 23.822,74.161 23.619 C 74.155 23.225,73.515 21.771,73.506 22.129 M293.064 25.583 C 293.064 26.683,293.091 27.112,293.124 26.535 C 293.156 25.959,293.156 25.059,293.123 24.535 C 293.090 24.012,293.063 24.483,293.064 25.583 M268.372 26.000 C 268.372 26.321,268.406 26.452,268.448 26.292 C 268.490 26.131,268.490 25.869,268.448 25.708 C 268.406 25.548,268.372 25.679,268.372 26.000 M7.017 26.564 C 7.008 26.736,7.302 28.124,7.671 29.647 C 8.040 31.170,8.386 32.604,8.441 32.833 C 8.496 33.063,8.573 33.163,8.613 33.056 C 8.652 32.950,8.380 31.600,8.007 30.056 C 7.192 26.681,7.040 26.144,7.017 26.564 M40.763 27.491 C 40.460 28.824,40.435 29.136,40.649 28.908 C 40.731 28.821,40.879 28.375,40.979 27.917 C 41.079 27.458,41.208 26.915,41.266 26.708 C 41.327 26.493,41.299 26.333,41.199 26.333 C 41.104 26.333,40.908 26.854,40.763 27.491 M57.494 26.917 C 57.485 27.100,57.386 27.900,57.273 28.693 C 57.068 30.141,57.160 31.325,57.389 30.180 C 57.450 29.875,57.500 29.367,57.500 29.053 C 57.500 28.269,57.769 28.495,57.878 29.371 C 57.927 29.763,58.089 30.796,58.236 31.667 C 58.384 32.537,58.548 33.507,58.599 33.822 C 58.661 34.197,58.739 34.320,58.826 34.179 C 58.898 34.061,58.898 33.729,58.826 33.441 C 58.632 32.674,58.196 30.128,57.980 28.500 C 57.792 27.083,57.528 26.222,57.494 26.917 M30.523 27.083 C 30.496 27.636,30.926 29.088,31.055 28.880 C 31.202 28.641,31.007 27.333,30.824 27.333 C 30.751 27.333,30.657 27.202,30.615 27.042 C 30.551 26.797,30.536 26.804,30.523 27.083 M74.767 27.458 C 75.105 28.910,75.825 31.548,75.906 31.628 C 76.133 31.855,75.626 29.251,75.062 27.292 C 74.923 26.809,74.652 26.963,74.767 27.458 M268.167 27.370 C 268.167 30.809,265.276 33.802,261.250 34.530 C 260.479 34.670,260.237 34.761,260.538 34.798 C 263.386 35.153,268.167 31.399,268.167 28.807 C 268.167 28.574,268.251 28.141,268.354 27.846 C 268.493 27.448,268.493 27.259,268.354 27.121 C 268.215 26.982,268.167 27.047,268.167 27.370 M292.763 28.708 C 292.700 29.281,292.611 30.050,292.564 30.417 C 292.500 30.922,292.521 31.017,292.654 30.811 C 292.835 30.529,293.116 27.667,292.963 27.667 C 292.915 27.667,292.825 28.135,292.763 28.708 M30.998 29.292 C 30.990 29.697,32.072 34.279,32.208 34.417 C 32.403 34.615,32.252 33.374,31.913 32.000 C 31.789 31.496,31.602 30.652,31.498 30.125 C 31.345 29.346,31.007 28.784,30.998 29.292 M40.290 29.500 C 39.856 31.246,39.311 34.034,39.389 34.111 C 39.441 34.163,39.523 34.028,39.572 33.811 C 39.620 33.594,39.853 32.607,40.090 31.617 C 40.327 30.627,40.492 29.652,40.457 29.450 C 40.396 29.098,40.389 29.100,40.290 29.500 M56.975 31.083 C 56.920 31.175,56.823 31.700,56.760 32.250 C 56.697 32.800,56.460 34.366,56.233 35.729 C 55.855 37.999,55.825 38.563,56.100 38.289 C 56.206 38.183,56.494 36.455,56.922 33.356 C 57.172 31.544,57.191 30.724,56.975 31.083 M76.079 32.484 C 76.134 32.888,76.254 33.338,76.346 33.484 C 76.465 33.673,76.482 33.532,76.405 33.000 C 76.345 32.587,76.224 32.137,76.137 32.000 C 76.031 31.832,76.012 31.990,76.079 32.484 M8.667 33.632 C 8.667 33.796,8.787 34.377,8.933 34.923 C 9.080 35.470,9.295 36.329,9.411 36.833 C 9.528 37.337,9.859 38.762,10.148 40.000 C 10.436 41.237,10.710 42.419,10.756 42.625 C 10.802 42.831,10.917 43.000,11.011 43.000 C 11.197 43.000,11.069 42.040,10.788 41.333 C 10.696 41.104,10.598 40.729,10.569 40.500 C 10.506 39.994,10.184 38.708,10.007 38.250 C 9.936 38.067,9.706 37.167,9.497 36.250 C 8.881 33.553,8.824 33.333,8.744 33.333 C 8.701 33.333,8.667 33.468,8.667 33.632 M83.498 33.615 C 83.497 33.689,83.345 34.462,83.160 35.333 C 82.975 36.204,82.749 37.329,82.658 37.833 C 82.341 39.576,81.806 42.421,81.570 43.618 C 81.340 44.788,81.254 45.968,81.412 45.811 C 81.455 45.768,81.600 45.024,81.734 44.158 C 82.168 41.363,83.589 34.094,83.753 33.828 C 83.800 33.752,83.763 33.643,83.669 33.585 C 83.576 33.527,83.499 33.541,83.498 33.615 M76.506 34.014 C 76.509 34.144,76.612 34.700,76.734 35.250 C 76.856 35.800,77.156 37.150,77.400 38.250 C 77.644 39.350,77.953 40.737,78.086 41.333 C 78.219 41.929,78.419 42.942,78.530 43.583 C 78.640 44.225,78.758 44.623,78.792 44.468 C 78.863 44.145,78.744 43.482,77.932 39.667 C 76.850 34.584,76.484 33.133,76.506 34.014 M39.115 34.667 C 39.065 34.896,38.871 35.758,38.686 36.583 C 38.501 37.408,38.309 38.421,38.259 38.833 L 38.169 39.583 38.400 38.750 C 38.877 37.027,39.364 34.676,39.287 34.467 C 39.243 34.346,39.167 34.435,39.115 34.667 M58.913 35.333 C 58.971 35.837,59.211 37.188,59.445 38.333 C 59.679 39.479,59.933 40.754,60.009 41.167 C 60.127 41.810,60.283 42.542,60.941 45.542 C 60.996 45.794,61.098 46.000,61.166 46.000 C 61.234 46.000,61.341 46.394,61.403 46.875 C 61.465 47.356,61.586 47.975,61.673 48.250 C 61.759 48.525,61.982 49.425,62.169 50.250 C 62.355 51.075,62.617 52.200,62.750 52.750 C 63.733 56.818,64.938 61.894,65.095 62.632 C 65.140 62.842,65.240 62.974,65.318 62.926 C 65.395 62.878,65.318 62.331,65.145 61.711 C 64.972 61.091,64.761 60.246,64.676 59.833 C 64.591 59.421,64.295 58.183,64.019 57.083 C 62.713 51.882,60.945 44.172,60.084 39.917 C 59.843 38.725,59.580 37.600,59.500 37.417 C 59.420 37.233,59.308 36.593,59.251 35.995 C 59.194 35.396,59.071 34.796,58.978 34.661 C 58.858 34.489,58.839 34.687,58.913 35.333 M32.251 35.125 C 32.504 36.089,32.850 37.627,33.055 38.704 C 33.173 39.320,33.331 39.883,33.406 39.954 C 33.565 40.104,33.398 38.821,33.087 37.500 C 32.968 36.996,32.782 36.152,32.673 35.625 C 32.565 35.098,32.398 34.667,32.303 34.667 C 32.197 34.667,32.177 34.842,32.251 35.125 M55.261 40.958 C 54.999 42.310,54.747 43.604,54.702 43.833 C 54.658 44.063,54.680 44.195,54.753 44.127 C 54.825 44.059,54.982 43.534,55.101 42.960 C 55.221 42.386,55.425 41.542,55.555 41.083 C 55.879 39.944,56.063 38.500,55.885 38.500 C 55.805 38.500,55.524 39.606,55.261 40.958 M104.435 42.844 C 103.993 44.683,103.670 46.226,103.717 46.273 C 103.816 46.372,103.865 46.209,104.259 44.458 C 104.419 43.748,104.614 43.167,104.692 43.167 C 104.770 43.167,104.833 43.030,104.833 42.864 C 104.833 42.697,104.982 42.003,105.163 41.322 C 105.519 39.981,105.574 39.500,105.369 39.500 C 105.297 39.500,104.876 41.005,104.435 42.844 M37.934 40.167 C 37.874 40.487,37.750 41.125,37.659 41.583 C 37.567 42.042,37.265 43.617,36.987 45.083 C 36.709 46.550,36.440 47.956,36.389 48.208 C 36.336 48.470,36.369 48.667,36.465 48.667 C 36.559 48.667,36.687 48.273,36.750 47.792 C 36.813 47.310,37.160 45.351,37.522 43.436 C 37.884 41.522,38.149 39.872,38.111 39.770 C 38.074 39.667,37.994 39.846,37.934 40.167 M33.519 40.583 C 33.516 40.767,33.587 41.254,33.674 41.667 C 33.762 42.079,33.984 43.279,34.168 44.333 C 34.579 46.697,34.679 47.043,34.577 45.750 C 34.485 44.577,33.863 41.065,33.662 40.583 L 33.523 40.250 33.519 40.583 M11.088 43.875 C 11.153 44.265,11.261 44.696,11.329 44.833 C 11.397 44.971,11.545 45.571,11.658 46.167 C 11.772 46.762,11.926 47.325,12.000 47.417 C 12.074 47.508,12.401 48.698,12.726 50.061 C 13.051 51.424,13.369 52.587,13.432 52.645 C 13.495 52.703,13.506 52.563,13.457 52.333 C 12.320 47.096,10.609 40.985,11.088 43.875 M54.095 46.517 C 53.466 49.496,53.443 49.641,53.640 49.333 C 53.727 49.196,53.926 48.446,54.081 47.667 C 54.236 46.887,54.435 45.888,54.524 45.446 C 54.613 45.004,54.659 44.562,54.627 44.463 C 54.594 44.365,54.355 45.289,54.095 46.517 M78.833 45.026 C 78.833 45.162,79.014 46.506,79.234 48.012 C 79.455 49.518,79.689 51.331,79.754 52.042 C 79.819 52.752,79.934 53.333,80.009 53.333 C 80.084 53.333,80.108 53.615,80.062 53.958 C 80.004 54.391,80.027 54.506,80.136 54.333 C 80.223 54.196,80.383 53.408,80.491 52.583 C 80.599 51.758,80.839 50.014,81.024 48.708 C 81.209 47.401,81.328 46.238,81.289 46.124 C 81.250 46.010,81.124 46.592,81.010 47.417 C 80.895 48.242,80.696 49.573,80.568 50.375 C 80.439 51.177,80.325 52.115,80.314 52.458 L 80.295 53.083 80.138 52.417 C 80.052 52.050,79.917 51.300,79.838 50.750 C 79.759 50.200,79.538 48.669,79.348 47.348 C 79.041 45.223,78.833 44.284,78.833 45.026 M103.431 47.000 C 103.116 48.399,101.949 53.225,101.557 54.750 C 101.321 55.667,101.029 56.867,100.909 57.417 C 100.788 57.967,100.542 58.961,100.361 59.625 C 100.181 60.290,100.094 60.872,100.168 60.918 C 100.242 60.963,100.468 60.307,100.670 59.459 C 101.125 57.542,101.315 56.744,102.090 53.500 C 102.429 52.079,102.803 50.504,102.921 50.000 C 103.039 49.496,103.260 48.612,103.412 48.036 C 103.564 47.460,103.660 46.860,103.625 46.703 C 103.587 46.531,103.509 46.650,103.431 47.000 M34.667 47.116 C 34.667 47.303,34.817 48.563,35.000 49.917 C 35.183 51.271,35.333 52.699,35.333 53.092 C 35.333 53.485,35.379 53.925,35.434 54.070 C 35.596 54.490,35.833 54.375,35.837 53.875 C 35.839 53.623,35.989 52.517,36.170 51.417 C 36.547 49.129,36.576 48.691,36.333 48.934 C 36.241 49.025,36.047 49.959,35.901 51.009 C 35.650 52.818,35.504 53.444,35.497 52.736 C 35.491 52.073,34.847 46.958,34.759 46.870 C 34.708 46.819,34.667 46.930,34.667 47.116 M53.181 50.583 C 52.884 51.988,52.358 54.157,52.171 54.750 C 52.084 55.025,51.971 55.587,51.920 56.000 C 51.787 57.066,52.068 56.402,52.414 54.833 C 52.566 54.146,52.876 52.807,53.104 51.858 C 53.331 50.909,53.490 50.009,53.456 49.858 C 53.421 49.707,53.298 50.033,53.181 50.583 M13.517 53.147 C 13.502 53.504,13.654 54.174,14.428 57.167 C 14.559 57.671,14.819 58.758,15.007 59.583 C 15.417 61.388,15.992 63.805,16.107 64.211 C 16.372 65.144,16.394 64.137,16.130 63.131 C 15.955 62.463,15.742 61.617,15.657 61.250 C 15.572 60.883,15.427 60.321,15.336 60.000 C 15.245 59.679,14.868 58.142,14.500 56.583 C 13.653 53.004,13.540 52.609,13.517 53.147 M51.520 57.500 C 51.414 57.913,51.255 58.512,51.167 58.833 C 50.890 59.833,50.639 60.880,50.591 61.239 C 50.565 61.428,50.500 61.696,50.446 61.833 C 50.303 62.197,49.833 64.100,49.833 64.316 C 49.833 64.938,50.160 64.305,50.406 63.208 C 50.565 62.498,50.759 61.729,50.837 61.500 C 50.915 61.271,51.026 60.821,51.084 60.500 C 51.142 60.179,51.339 59.296,51.523 58.536 C 51.707 57.777,51.825 57.065,51.785 56.953 C 51.745 56.841,51.626 57.087,51.520 57.500 M99.942 61.333 C 99.523 62.413,98.793 65.833,98.981 65.833 C 99.165 65.833,100.230 61.597,100.120 61.301 C 100.058 61.134,100.016 61.141,99.942 61.333 M65.333 63.328 C 65.333 63.454,65.590 64.613,65.903 65.903 C 66.216 67.194,66.561 68.644,66.670 69.125 C 66.778 69.606,66.915 70.000,66.975 70.001 C 67.035 70.001,67.101 70.311,67.123 70.689 C 67.145 71.068,67.233 71.462,67.319 71.566 C 67.405 71.670,67.552 72.091,67.647 72.502 C 68.430 75.918,69.237 78.938,69.394 79.039 C 69.498 79.106,75.449 79.163,82.619 79.164 C 97.086 79.167,96.025 79.249,95.987 78.136 C 95.975 77.795,95.953 77.808,95.795 78.250 C 95.697 78.525,95.534 78.805,95.433 78.872 C 95.333 78.940,89.513 78.995,82.500 78.995 C 75.487 78.995,69.664 78.940,69.560 78.872 C 69.455 78.805,69.170 77.925,68.925 76.917 C 65.922 64.529,65.333 62.302,65.333 63.328 M49.514 65.508 C 49.296 66.522,49.297 66.500,49.480 66.500 C 49.614 66.500,50.000 65.268,50.000 64.843 C 50.000 64.329,49.670 64.780,49.514 65.508 M16.333 65.008 C 16.333 65.486,17.395 69.500,17.521 69.500 C 17.731 69.500,17.414 67.823,17.048 67.000 C 16.987 66.862,16.930 66.637,16.921 66.500 C 16.855 65.476,16.333 64.153,16.333 65.008 M98.286 67.875 C 98.040 68.906,97.573 70.875,97.249 72.250 C 96.925 73.625,96.512 75.318,96.330 76.011 C 95.997 77.285,95.922 77.801,96.094 77.628 C 96.207 77.515,96.768 75.232,98.028 69.750 C 98.218 68.925,98.471 68.025,98.589 67.750 C 98.890 67.056,99.069 66.000,98.886 66.000 C 98.803 66.000,98.533 66.844,98.286 67.875 M48.767 68.708 C 48.514 69.831,48.264 70.938,48.213 71.167 C 48.162 71.396,48.174 71.534,48.240 71.473 C 48.306 71.412,48.503 70.709,48.677 69.910 C 48.852 69.111,49.063 68.373,49.145 68.270 C 49.363 67.999,49.557 66.667,49.379 66.667 C 49.296 66.667,49.021 67.585,48.767 68.708 M17.500 69.825 C 17.500 70.268,17.879 71.667,17.999 71.667 C 18.075 71.667,18.189 71.985,18.251 72.375 C 18.314 72.765,18.501 73.646,18.668 74.333 C 18.835 75.021,19.025 75.808,19.090 76.083 C 19.155 76.358,19.240 76.498,19.279 76.393 C 19.317 76.288,19.053 74.975,18.692 73.476 C 18.330 71.977,17.983 70.506,17.920 70.208 C 17.818 69.722,17.500 69.431,17.500 69.825 M47.516 74.008 C 47.211 75.296,47.004 76.393,47.056 76.445 C 47.108 76.497,47.189 76.362,47.235 76.145 C 47.282 75.928,47.469 75.112,47.652 74.333 C 48.053 72.627,48.227 71.667,48.137 71.667 C 48.100 71.667,47.821 72.720,47.516 74.008 M19.442 77.333 C 19.494 77.746,19.638 78.328,19.761 78.626 L 19.984 79.169 33.200 79.126 L 46.417 79.083 46.716 78.180 C 46.881 77.683,46.990 77.121,46.958 76.930 C 46.926 76.734,46.803 77.017,46.675 77.583 C 46.327 79.125,47.519 79.000,33.207 79.000 C 19.963 79.000,19.845 78.994,19.821 78.286 C 19.813 78.083,19.704 77.617,19.577 77.250 L 19.347 76.583 19.442 77.333 " stroke="none" fill="#96999f" fill-rule="evenodd"></path><path id="path2" d="M222.082 39.583 C 222.082 61.125,222.101 69.962,222.125 59.222 C 222.149 48.481,222.149 30.856,222.125 20.055 C 222.101 9.254,222.082 18.042,222.082 39.583 M395.911 9.000 C 395.911 13.629,395.932 15.523,395.958 13.208 C 395.984 10.894,395.984 7.106,395.958 4.792 C 395.932 2.477,395.911 4.371,395.911 9.000 M246.411 25.917 C 246.411 30.958,246.432 33.045,246.458 30.553 C 246.484 28.062,246.484 23.937,246.458 21.387 C 246.432 18.837,246.411 20.875,246.411 25.917 M359.242 23.500 C 359.242 26.662,359.264 27.956,359.291 26.375 C 359.319 24.794,359.319 22.206,359.291 20.625 C 359.264 19.044,359.242 20.337,359.242 23.500 M249.542 35.291 C 251.169 35.319,253.831 35.319,255.458 35.291 C 257.085 35.264,255.754 35.242,252.500 35.242 C 249.246 35.242,247.915 35.264,249.542 35.291 M359.204 54.115 C 359.183 58.349,359.223 61.848,359.292 61.891 C 359.405 61.961,359.403 56.203,359.287 49.167 C 359.262 47.654,359.225 49.881,359.204 54.115 M248.375 51.124 C 249.360 51.154,250.973 51.154,251.958 51.124 C 252.944 51.095,252.137 51.071,250.167 51.071 C 248.196 51.071,247.390 51.095,248.375 51.124 M246.333 65.117 C 246.287 72.652,246.307 78.760,246.376 78.691 C 246.445 78.621,246.483 72.456,246.459 64.991 L 246.417 51.417 246.333 65.117 " stroke="none" fill="#585d61" fill-rule="evenodd"></path><path id="path3" d="M232.555 0.458 C 238.314 0.483,247.689 0.483,253.388 0.458 C 259.087 0.434,254.375 0.414,242.917 0.414 C 231.458 0.414,226.795 0.434,232.555 0.458 M334.915 39.500 C 334.915 60.813,334.935 69.531,334.958 58.875 C 334.982 48.219,334.982 30.781,334.958 20.125 C 334.935 9.469,334.915 18.188,334.915 39.500 M367.958 29.458 C 372.656 29.483,380.344 29.483,385.042 29.458 C 389.740 29.434,385.896 29.414,376.500 29.414 C 367.104 29.414,363.260 29.434,367.958 29.458 M286.240 41.875 L 285.750 42.417 286.292 41.927 C 286.797 41.471,286.910 41.333,286.781 41.333 C 286.752 41.333,286.509 41.577,286.240 41.875 M368.042 46.292 C 372.694 46.316,380.306 46.316,384.958 46.292 C 389.610 46.267,385.804 46.247,376.500 46.247 C 367.196 46.247,363.390 46.267,368.042 46.292 " stroke="none" fill="#6b6c74" fill-rule="evenodd"></path><path id="path4" d="M6.792 0.625 C 10.023 0.650,15.310 0.650,18.542 0.625 C 21.773 0.600,19.129 0.579,12.667 0.579 C 6.204 0.579,3.560 0.600,6.792 0.625 M52.542 0.625 C 55.360 0.651,59.973 0.651,62.792 0.625 C 65.610 0.599,63.304 0.578,57.667 0.578 C 52.029 0.578,49.723 0.599,52.542 0.625 M102.824 0.624 C 111.818 0.659,114.431 0.715,114.545 0.876 C 114.653 1.029,114.674 1.017,114.624 0.833 C 114.564 0.614,113.118 0.583,102.903 0.582 L 91.250 0.580 102.824 0.624 M149.943 0.624 C 149.900 0.693,155.295 0.730,161.933 0.706 L 174.000 0.662 174.000 39.663 L 174.000 78.664 161.958 78.709 L 149.917 78.753 162.000 78.752 L 174.083 78.750 174.083 39.667 L 174.083 0.583 162.052 0.541 C 155.435 0.517,149.986 0.555,149.943 0.624 M350.222 0.625 C 358.639 0.649,372.364 0.649,380.722 0.625 C 389.079 0.601,382.192 0.582,365.417 0.582 C 348.642 0.582,341.804 0.601,350.222 0.625 M149.915 40.583 C 149.915 60.108,149.935 68.071,149.958 58.278 C 149.982 48.486,149.982 32.511,149.958 22.778 C 149.935 13.046,149.915 21.058,149.915 40.583 M285.750 7.167 C 286.201 7.625,286.608 8.000,286.654 8.000 C 286.700 8.000,286.368 7.625,285.917 7.167 C 285.465 6.708,285.058 6.333,285.013 6.333 C 284.967 6.333,285.299 6.708,285.750 7.167 M249.542 16.625 C 251.169 16.652,253.831 16.652,255.458 16.625 C 257.085 16.597,255.754 16.575,252.500 16.575 C 249.246 16.575,247.915 16.597,249.542 16.625 M292.712 24.500 C 292.712 24.912,292.745 25.081,292.784 24.875 C 292.824 24.669,292.824 24.331,292.784 24.125 C 292.745 23.919,292.712 24.087,292.712 24.500 M292.712 26.667 C 292.712 27.079,292.745 27.248,292.784 27.042 C 292.824 26.835,292.824 26.498,292.784 26.292 C 292.745 26.085,292.712 26.254,292.712 26.667 M258.542 35.282 C 258.702 35.323,258.965 35.323,259.125 35.282 C 259.285 35.240,259.154 35.205,258.833 35.205 C 258.512 35.205,258.381 35.240,258.542 35.282 M369.388 62.125 C 374.872 62.149,383.797 62.149,389.221 62.125 C 394.645 62.101,390.158 62.081,379.250 62.081 C 368.342 62.081,363.904 62.101,369.388 62.125 M399.244 70.500 C 399.244 75.037,399.265 76.894,399.292 74.625 C 399.318 72.356,399.318 68.644,399.292 66.375 C 399.265 64.106,399.244 65.962,399.244 70.500 M149.872 77.333 C 149.872 77.654,149.906 77.785,149.948 77.625 C 149.990 77.465,149.990 77.202,149.948 77.042 C 149.906 76.881,149.872 77.012,149.872 77.333 M268.809 78.709 C 268.879 78.779,274.931 78.816,282.259 78.793 L 295.583 78.750 282.133 78.667 C 274.736 78.621,268.740 78.640,268.809 78.709 M26.708 78.792 C 30.260 78.817,36.073 78.817,39.625 78.792 C 43.177 78.767,40.271 78.746,33.167 78.746 C 26.063 78.746,23.156 78.767,26.708 78.792 M76.042 78.792 C 79.594 78.817,85.406 78.817,88.958 78.792 C 92.510 78.767,89.604 78.746,82.500 78.746 C 75.396 78.746,72.490 78.767,76.042 78.792 M228.125 78.792 C 231.448 78.817,236.885 78.817,240.208 78.792 C 243.531 78.766,240.813 78.746,234.167 78.746 C 227.521 78.746,224.802 78.766,228.125 78.792 M351.138 78.792 C 359.968 78.815,374.368 78.815,383.138 78.792 C 391.908 78.768,384.683 78.748,367.083 78.748 C 349.483 78.748,342.308 78.768,351.138 78.792 " stroke="none" fill="#434c4f" fill-rule="evenodd"></path><path id="path5" d="M149.749 39.667 C 149.749 60.887,149.768 69.569,149.792 58.958 C 149.815 48.348,149.815 30.985,149.792 20.375 C 149.768 9.765,149.749 18.446,149.749 39.667 " stroke="none" fill="#6c7476" fill-rule="evenodd"></path><path id="path6" d="M264.375 0.453 C 264.627 0.491,265.040 0.491,265.292 0.453 C 265.544 0.415,265.337 0.383,264.833 0.383 C 264.329 0.383,264.123 0.415,264.375 0.453 M285.000 6.219 C 285.000 6.248,285.244 6.491,285.542 6.760 L 286.083 7.250 285.594 6.708 C 285.138 6.203,285.000 6.090,285.000 6.219 M89.564 6.907 C 89.513 7.039,89.501 7.283,89.537 7.449 C 89.578 7.637,89.635 7.547,89.689 7.208 C 89.780 6.641,89.721 6.498,89.564 6.907 M2.836 9.264 C 2.837 9.440,2.915 9.696,3.008 9.833 C 3.131 10.016,3.147 9.948,3.065 9.583 C 2.928 8.971,2.832 8.837,2.836 9.264 M26.814 10.703 C 26.890 11.166,26.914 11.189,26.966 10.856 C 27.000 10.639,26.960 10.393,26.876 10.309 C 26.783 10.216,26.759 10.372,26.814 10.703 M3.336 11.264 C 3.337 11.440,3.415 11.696,3.508 11.833 C 3.631 12.016,3.647 11.948,3.565 11.583 C 3.428 10.971,3.332 10.837,3.336 11.264 M249.542 16.791 C 251.169 16.819,253.831 16.819,255.458 16.791 C 257.085 16.764,255.754 16.742,252.500 16.742 C 249.246 16.742,247.915 16.764,249.542 16.791 M368.792 17.625 C 373.765 17.649,381.902 17.649,386.875 17.625 C 391.848 17.600,387.779 17.580,377.833 17.580 C 367.887 17.580,363.819 17.600,368.792 17.625 M268.169 23.347 C 268.171 23.569,268.246 23.863,268.336 24.000 C 268.451 24.176,268.468 24.077,268.392 23.667 C 268.261 22.948,268.166 22.812,268.169 23.347 M292.899 25.500 C 292.899 26.738,292.925 27.244,292.957 26.625 C 292.989 26.006,292.989 24.994,292.957 24.375 C 292.925 23.756,292.899 24.262,292.899 25.500 M268.433 26.350 C 268.372 26.732,268.355 27.077,268.395 27.117 C 268.434 27.157,268.519 26.879,268.583 26.500 C 268.647 26.121,268.665 25.776,268.622 25.733 C 268.579 25.690,268.494 25.968,268.433 26.350 M40.564 29.074 C 40.513 29.206,40.501 29.449,40.537 29.615 C 40.578 29.803,40.635 29.713,40.689 29.375 C 40.780 28.807,40.721 28.665,40.564 29.074 M393.577 37.833 C 393.577 42.462,393.599 44.356,393.625 42.042 C 393.651 39.727,393.651 35.940,393.625 33.625 C 393.599 31.310,393.577 33.204,393.577 37.833 M57.023 30.361 C 57.010 30.514,56.951 30.777,56.892 30.945 C 56.809 31.180,56.831 31.207,56.990 31.061 C 57.103 30.957,57.161 30.694,57.120 30.478 C 57.079 30.261,57.035 30.208,57.023 30.361 M75.768 31.750 C 75.905 32.363,76.001 32.496,75.997 32.069 C 75.996 31.894,75.919 31.637,75.826 31.500 C 75.702 31.317,75.687 31.385,75.768 31.750 M76.268 33.750 C 76.405 34.363,76.501 34.496,76.497 34.069 C 76.496 33.894,76.419 33.637,76.326 33.500 C 76.202 33.317,76.187 33.385,76.268 33.750 M248.125 35.118 C 248.331 35.157,248.669 35.157,248.875 35.118 C 249.081 35.078,248.912 35.045,248.500 35.045 C 248.088 35.045,247.919 35.078,248.125 35.118 M257.213 35.123 C 257.652 35.157,258.327 35.157,258.713 35.122 C 259.100 35.087,258.742 35.059,257.917 35.059 C 257.092 35.060,256.775 35.088,257.213 35.123 M59.333 36.823 C 59.333 37.093,59.393 37.350,59.465 37.395 C 59.538 37.440,59.567 37.219,59.530 36.905 C 59.448 36.205,59.333 36.157,59.333 36.823 M32.768 37.750 C 32.905 38.363,33.001 38.496,32.997 38.069 C 32.996 37.894,32.919 37.637,32.826 37.500 C 32.702 37.317,32.687 37.385,32.768 37.750 M33.274 40.167 C 33.406 40.885,33.501 41.021,33.497 40.486 C 33.496 40.265,33.421 39.971,33.331 39.833 C 33.216 39.657,33.199 39.756,33.274 40.167 M51.686 56.361 C 51.675 56.514,51.624 56.777,51.571 56.945 C 51.480 57.234,51.485 57.235,51.665 56.953 C 51.770 56.790,51.822 56.527,51.781 56.370 C 51.713 56.112,51.703 56.111,51.686 56.361 M100.686 57.861 C 100.675 58.014,100.624 58.277,100.571 58.445 C 100.480 58.734,100.485 58.735,100.665 58.453 C 100.770 58.290,100.822 58.027,100.781 57.870 C 100.713 57.612,100.703 57.611,100.686 57.861 M15.169 59.431 C 15.171 59.606,15.248 59.862,15.341 60.000 C 15.464 60.183,15.480 60.115,15.398 59.750 C 15.261 59.137,15.166 59.004,15.169 59.431 M64.695 59.917 C 64.692 60.100,64.755 60.400,64.833 60.583 C 65.016 61.008,65.016 60.570,64.833 60.000 C 64.726 59.665,64.699 59.649,64.695 59.917 M369.138 61.958 C 374.393 61.983,382.943 61.983,388.138 61.958 C 393.333 61.934,389.033 61.914,378.583 61.914 C 368.133 61.914,363.883 61.934,369.138 61.958 M268.645 78.708 C 268.860 78.982,269.680 78.998,282.229 78.959 L 295.583 78.919 282.266 78.875 C 271.955 78.841,268.888 78.785,268.683 78.624 C 268.447 78.440,268.443 78.450,268.645 78.708 M26.708 78.958 C 30.260 78.983,36.073 78.983,39.625 78.958 C 43.177 78.933,40.271 78.913,33.167 78.913 C 26.063 78.913,23.156 78.933,26.708 78.958 M76.042 78.958 C 79.594 78.983,85.406 78.983,88.958 78.958 C 92.510 78.933,89.604 78.913,82.500 78.913 C 75.396 78.913,72.490 78.933,76.042 78.958 M155.958 78.958 C 159.281 78.984,164.719 78.984,168.042 78.958 C 171.365 78.933,168.646 78.912,162.000 78.912 C 155.354 78.912,152.635 78.933,155.958 78.958 M228.042 78.958 C 231.319 78.984,236.681 78.984,239.958 78.958 C 243.235 78.933,240.554 78.912,234.000 78.912 C 227.446 78.912,224.765 78.933,228.042 78.958 M351.138 78.958 C 359.968 78.982,374.368 78.982,383.138 78.958 C 391.908 78.934,384.683 78.915,367.083 78.915 C 349.483 78.915,342.308 78.934,351.138 78.958 " stroke="none" fill="#74747c" fill-rule="evenodd"></path><path id="path7" d="M264.461 0.621 C 264.761 0.658,265.211 0.657,265.461 0.619 C 265.712 0.581,265.467 0.551,264.917 0.552 C 264.367 0.553,264.162 0.584,264.461 0.621 M149.883 1.667 C 149.883 2.171,149.915 2.377,149.953 2.125 C 149.991 1.873,149.991 1.460,149.953 1.208 C 149.915 0.956,149.883 1.162,149.883 1.667 M335.082 39.583 C 335.082 60.850,335.101 69.525,335.125 58.862 C 335.149 48.198,335.149 30.798,335.125 20.195 C 335.101 9.592,335.082 18.317,335.082 39.583 M149.885 4.250 C 149.886 4.800,149.917 5.005,149.954 4.705 C 149.991 4.406,149.990 3.956,149.952 3.705 C 149.914 3.455,149.884 3.700,149.885 4.250 M246.367 16.700 C 246.215 16.852,246.176 19.079,246.207 25.908 L 246.247 34.917 246.292 25.932 C 246.323 19.636,246.392 16.880,246.522 16.724 C 246.752 16.446,246.638 16.429,246.367 16.700 M359.276 17.458 C 359.206 17.571,372.005 17.571,389.333 17.456 C 392.954 17.432,387.690 17.395,377.635 17.373 C 367.580 17.351,359.318 17.390,359.276 17.458 M292.539 22.833 C 292.539 23.154,292.573 23.285,292.615 23.125 C 292.657 22.965,292.657 22.702,292.615 22.542 C 292.573 22.381,292.539 22.512,292.539 22.833 M268.720 26.000 C 268.720 26.596,268.750 26.840,268.787 26.542 C 268.824 26.244,268.824 25.756,268.787 25.458 C 268.750 25.160,268.720 25.404,268.720 26.000 M57.271 26.423 C 57.213 26.572,57.173 26.819,57.181 26.972 C 57.189 27.125,57.261 27.029,57.342 26.758 C 57.499 26.232,57.444 25.972,57.271 26.423 M367.958 29.625 C 372.656 29.650,380.344 29.650,385.042 29.625 C 389.740 29.600,385.896 29.580,376.500 29.580 C 367.104 29.580,363.260 29.600,367.958 29.625 M246.246 65.083 C 246.246 72.600,246.267 75.651,246.292 71.863 C 246.317 68.074,246.317 61.924,246.292 58.196 C 246.267 54.467,246.246 57.567,246.246 65.083 M80.201 54.841 C 80.072 55.047,80.061 55.167,80.170 55.167 C 80.266 55.167,80.388 55.051,80.442 54.909 C 80.592 54.519,80.431 54.473,80.201 54.841 M399.076 69.417 C 399.076 72.992,399.098 74.430,399.125 72.614 C 399.152 70.797,399.152 67.872,399.125 66.114 C 399.098 64.355,399.076 65.842,399.076 69.417 M399.053 77.500 C 399.053 78.096,399.084 78.340,399.121 78.042 C 399.158 77.744,399.158 77.256,399.121 76.958 C 399.084 76.660,399.053 76.904,399.053 77.500 " stroke="none" fill="#3c4244" fill-rule="evenodd"></path></g></svg>